<?xml version="1.0" encoding="utf-8"?>
<!-- Generator: Adobe Illustrator 26.0.0, SVG Export Plug-In . SVG Version: 6.00 Build 0)  -->
<svg version="1.1" id="Calque_1" xmlns="http://www.w3.org/2000/svg" xmlns:xlink="http://www.w3.org/1999/xlink" x="0px" y="0px"
	 viewBox="0 0 1143.8 382.6" style="enable-background:new 0 0 1143.8 382.6;" xml:space="preserve">
<style type="text/css">
	.st0{fill:#FFFFFF;}
</style>
<path class="st0" d="M805.1,125.4c-22.9,0-35.8,8.2-44.5,17.5v-17.7l-56.4,14.7v242.4l56.4-14.7V299c9,8.9,20.9,16.1,36.4,16.1
	c35.9,0,85.5-33.9,85.5-91.3C882.5,157.9,835.7,125.4,805.1,125.4L805.1,125.4z M797.8,299.3c-14.7,0-31.2-14.3-37.2-36.6V159.4
	c8.1-9.4,17.3-16,28.3-16c19.3,0,34.1,36.1,34.1,99.2C823.1,268.3,818.1,299.3,797.8,299.3L797.8,299.3z"/>
<path class="st0" d="M927.5,0c-16.2,0-28.7,13.3-28.7,29.4s12.6,28.7,28.7,28.7s29.4-12.6,29.4-28.7S944,0,927.5,0z"/>
<polygon class="st0" points="899.6,315.2 956.1,300.5 956.1,125.1 899.6,139.8 "/>
<path class="st0" d="M1143.8,198c0-38.6-33.5-73.1-82.4-73.1c-43.4,0-88.3,31.3-88.3,93.1s42.7,95.6,94.1,95.6
	c25.4,0,43.2-8.5,55.9-23.5l-17.8-4.6c-7.8,7.5-17.6,11.4-31.3,11.4c-35.4,0-43.2-35.5-44.4-68.6h114.2L1143.8,198L1143.8,198z
	 M1029.5,207.1c0.4-41.1,9.8-65.4,31.1-65.4s27.5,24.7,27.5,65.4H1029.5L1029.5,207.1z"/>
<path class="st0" d="M626,260.5c-7.6,12.7-20.8,30.2-36.8,30.2c-18.4,0-18-33.1-17.7-50v0c0-2.5,0-115.6,0-115.6L516,139.7v74.1l0,0
	v42.1c0,0-4,59.1,55.9,59.1c0,0,31.3,0.8,54.1-31.9v31.9l56.4-14.7V125L626,139.7L626,260.5L626,260.5z"/>
<path class="st0" d="M326.3,150.8c0-14-11.4-25.4-25.4-25.4c-19.9,0-37.2,8-45.8,19.8v-19.8l-56.4,14.7v174.3l56.4-14.7V170.6h0
	c0-6,5.4-10.8,12.1-10.8c3.4,0,6.5,1.3,8.7,3.4c4.1,2.9,9.8,10.9,20.6,12.7c0.1,0,0.1,0,0.2,0c1.3,0.2,2.7,0.4,4.2,0.4
	c0.6,0,1.1-0.1,1.6-0.1c11-0.7,20.1-8.4,22.9-18.7C326,155.3,326.3,153.1,326.3,150.8L326.3,150.8z"/>
<path class="st0" d="M22.8,255.6c0,0,0.1,0,0.1,0C22.9,255.6,22.9,255.6,22.8,255.6C22.9,255.6,22.9,255.6,22.8,255.6L22.8,255.6z"
	/>
<path class="st0" d="M168.9,125.6c-0.6-0.1-1.1-0.2-1.7-0.2c-0.1,0-0.2,0-0.3,0c0,0-0.1,0-0.1,0c-14.8,0-23.2,8.4-27.4,21.1
	c-13.7-12-28.2-21.5-57.3-21.5c-45,0-78.1,24.6-78.1,64.4c0,0-1.4,28.7,24.7,46.8c6.2,4.3,14.1,8,23.9,10.6
	c4.4,1.1,9.2,2.1,14.3,2.7c4.6,0.6,9.8,1.1,15.9,1.1c0.5,0,0.9,0,1.3,0c44.3-0.4,77.1-21.8,77.1-61.2c0-9.4-2.3-15.4-4.1-19.6
	c-0.7-1.5-1.3-2.6-1.3-2.6l0,0c-0.2-0.4-0.4-0.9-0.4-1.4c0-1.8,1.4-3.2,3.2-3.2c0.5,0,0.9,0.1,1.4,0.3l0,0c0,0,4.1,2.3,8.8,2.1
	c0.3,0,0.7-0.1,1-0.1c6.5-0.8,12-4.8,15-10.3c1.5-2.8,2.4-6,2.4-9.4c0-5.7-2.4-10.8-6.2-14.4C177.8,128,173.6,126,168.9,125.6
	L168.9,125.6z M82.3,233.8c-20.4,0-24.6-22.5-24.6-44.7c0-20.4,3.9-47.9,24.6-47.9s24.6,27.4,24.6,47.9
	C107,211.3,102,233.8,82.3,233.8z"/>
<path class="st0" d="M97.5,271.8c0,0-78.3-10-96.4-12.2c-0.2,0.6-0.4,1.3-0.5,1.8c0,0.1-0.1,0.2-0.1,0.3c0,0.1-0.1,0.2-0.1,0.4
	c-0.1,0.3,0,0.6-0.1,0.9c-0.1,0.7-0.1,1.5-0.2,2.2c0,0.6-0.2,1.2-0.2,1.8c0,0,0,0.1,0,0.2c0,0,0,0.1,0,0.1c0,0.5,0.1,1.1,0.1,1.6
	c0,0.4,0,0.8,0.1,1.1c0,0.4,0.1,0.7,0.1,1c1.7,13.9,12.3,24.8,33.2,28.7l39.9,7.6l31.8,6.1c17.6,3.2,22.9,10.2,22.9,19.4
	c0,25.3-22.9,34.8-45.4,34.8c-25.3,0-35.2-10.6-35.2-19.7c0-10.2,3.5-10.9,3.5-22.9s-10.9-16.2-21.8-16.2
	C11.6,308.8,0,319.3,0,337.3c0,29.5,34.8,45.4,81.3,45.4c51.7,0,92.2-24.3,92.2-58S147.4,279.2,97.5,271.8L97.5,271.8z"/>
<path class="st0" d="M410.2,125c-49,0-88.6,42.5-88.6,95s39.7,95,88.6,95s88.7-42.5,88.7-95S459.1,125,410.2,125z M410.1,300.7
	c-17.9,0-32.4-36.1-32.4-80.6s13.4-77.6,30.2-80.4c0.7-0.1,1.5-0.3,2.2-0.3c1,0,1.9,0.1,2.9,0.4c16.5,3.7,29.5,38.2,29.5,80.3
	C442.5,264.6,428,300.7,410.1,300.7z"/>
</svg>
