<?xml version="1.0" encoding="UTF-8" standalone="no"?>
<svg
   version="1.2"
   viewBox="0 0 454 454"
   width="454"
   height="454"
   id="svg22"
   sodipodi:docname="logo-renaudcollet-2024_contour_white2.svg"
   inkscape:version="1.3.2 (091e20e, 2023-11-25, custom)"
   xmlns:inkscape="http://www.inkscape.org/namespaces/inkscape"
   xmlns:sodipodi="http://sodipodi.sourceforge.net/DTD/sodipodi-0.dtd"
   xmlns="http://www.w3.org/2000/svg"
   xmlns:svg="http://www.w3.org/2000/svg"
   xmlns:rdf="http://www.w3.org/1999/02/22-rdf-syntax-ns#"
   xmlns:cc="http://creativecommons.org/ns#"
   xmlns:dc="http://purl.org/dc/elements/1.1/">
  <defs
     id="defs22" />
  <sodipodi:namedview
     id="namedview22"
     pagecolor="#ffffff"
     bordercolor="#000000"
     borderopacity="0.25"
     inkscape:showpageshadow="2"
     inkscape:pageopacity="0.0"
     inkscape:pagecheckerboard="0"
     inkscape:deskcolor="#d1d1d1"
     inkscape:zoom="1.2202643"
     inkscape:cx="206.10289"
     inkscape:cy="181.10831"
     inkscape:window-width="2560"
     inkscape:window-height="1346"
     inkscape:window-x="3829"
     inkscape:window-y="-11"
     inkscape:window-maximized="1"
     inkscape:current-layer="Calque 1" />
  <title
     id="title1">logo-renaudcollet-2024</title>
  <style
     id="style1">
		tspan { white-space:pre } 
		.s0 { fill: #231f20 } 
		.s1 { fill: #fefefe } 
		.t2 { font-size: 79px;line-height: 40px;fill: #2c2e35;font-weight: 700;font-family: &quot;Figtree-Bold&quot;, &quot;Figtree&quot; } 
		.t3 { font-size: 79px;line-height: 40px;fill: #2c2e35;font-weight: 600;font-family: &quot;Figtree-SemiBold&quot;, &quot;Figtree&quot; } 
	</style>
  <g
     id="Calque 1">
    <path
       id="&lt;Path&gt;"
       class="s0"
       d="M 144.40039,16.699219 79.171875,165.90039 H 429.04883 l 9.05078,-20.70117 z M 21.990234,296.69922 16,310.40039 l 293.69922,128.5 62.16797,-142.20117 z"
       style="fill:#ffffff" />
    <path
       style="-inkscape-font-specification:'Poppins Semi-Bold';fill:#ffffff;stroke-width:0.440365"
       d="m 82.750177,215.78285 -6.870679,-12.13522 h -2.944577 v 12.13522 h -6.246072 v -31.14113 h 11.689077 q 3.613799,0 6.156843,1.29383 2.543043,1.24922 3.792258,3.43534 1.293829,2.14151 1.293829,4.8184 0,3.07842 -1.784592,5.57685 -1.784592,2.45381 -5.309161,3.39072 l 7.450671,12.62599 z m -9.815256,-16.81978 h 5.219931 q 2.543044,0 3.792258,-1.2046 1.249215,-1.24921 1.249215,-3.43534 0,-2.14151 -1.249215,-3.30149 -1.249214,-1.2046 -3.792258,-1.2046 h -5.219931 z m 28.598119,-9.27988 v 7.80759 h 10.48448 v 4.95225 h -10.48448 v 8.25374 h 11.82292 v 5.08608 H 95.286969 v -31.18574 h 18.068991 v 5.08608 z m 44.12402,26.09966 h -6.24607 L 125.2681,194.41236 v 21.37049 h -6.24608 v -31.18574 h 6.24608 l 14.14289,21.4151 v -21.4151 h 6.24607 z m 25.252,-5.93377 h -12.40291 l -2.05229,5.93377 h -6.55837 l 11.19831,-31.18574 h 7.27222 l 11.19831,31.18574 h -6.60299 z m -1.69536,-4.99685 -4.5061,-13.02753 -4.50609,13.02753 z m 20.70125,-20.21051 v 19.2736 q 0,3.16765 1.65075,4.86301 1.65075,1.65075 4.63994,1.65075 3.0338,0 4.68455,-1.65075 1.65075,-1.69536 1.65075,-4.86301 v -19.2736 h 6.29069 v 19.22898 q 0,3.97072 -1.73998,6.73684 -1.69536,2.7215 -4.59533,4.10456 -2.85534,1.38306 -6.37991,1.38306 -3.47996,0 -6.3353,-1.38306 -2.81074,-1.38306 -4.46148,-4.10456 -1.65075,-2.76612 -1.65075,-6.73684 v -19.22898 z m 35.82571,0 q 4.90763,0 8.61066,1.91844 3.74764,1.91843 5.75531,5.48762 2.05228,3.52457 2.05228,8.20912 0,4.68456 -2.05228,8.20913 -2.00767,3.47995 -5.75531,5.39839 -3.70303,1.91843 -8.61066,1.91843 h -10.88601 v -31.14113 z m -0.22307,25.83197 q 4.90763,0 7.58451,-2.67689 2.67689,-2.67688 2.67689,-7.5399 0,-4.86301 -2.67689,-7.58451 -2.67688,-2.76612 -7.58451,-2.76612 h -4.41687 v 20.56742 z m 30.42737,-10.30602 q 0,-4.59532 2.05228,-8.20912 2.09689,-3.65841 5.66608,-5.66608 3.6138,-2.05228 8.07528,-2.05228 5.21993,0 9.14603,2.67689 3.9261,2.67688 5.48762,7.40605 h -7.18298 q -1.07076,-2.23074 -3.03381,-3.34611 -1.91844,-1.11537 -4.46148,-1.11537 -2.7215,0 -4.86301,1.29383 -2.0969,1.24922 -3.3015,3.56919 -1.15998,2.31997 -1.15998,5.443 0,3.07842 1.15998,5.44301 1.2046,2.31997 3.3015,3.6138 2.14151,1.24921 4.86301,1.24921 2.54304,0 4.46148,-1.11537 1.96305,-1.15998 3.03381,-3.39072 h 7.18298 q -1.56152,4.77378 -5.48762,7.45067 -3.88149,2.63227 -9.14603,2.63227 -4.46148,0 -8.07528,-2.00767 -3.56919,-2.05228 -5.66608,-5.66607 -2.05228,-3.6138 -2.05228,-8.20913 z m 50.23624,15.92749 q -4.37225,0 -8.03066,-2.05229 -3.65842,-2.05228 -5.79993,-5.66607 -2.14151,-3.65842 -2.14151,-8.25374 0,-4.55071 2.14151,-8.16451 2.14151,-3.65841 5.79993,-5.7107 3.65841,-2.05228 8.03066,-2.05228 4.41686,0 8.03066,2.05228 3.65842,2.05229 5.75531,5.7107 2.14151,3.6138 2.14151,8.16451 0,4.59532 -2.14151,8.25374 -2.09689,3.61379 -5.75531,5.66607 -3.65841,2.05229 -8.03066,2.05229 z m 0,-5.57685 q 2.81073,0 4.95224,-1.24922 2.14151,-1.29383 3.34611,-3.65841 1.2046,-2.36459 1.2046,-5.48762 0,-3.12304 -1.2046,-5.44301 -1.2046,-2.36458 -3.34611,-3.6138 -2.14151,-1.24921 -4.95224,-1.24921 -2.81073,0 -4.99686,1.24921 -2.14151,1.24922 -3.34611,3.6138 -1.2046,2.31997 -1.2046,5.44301 0,3.12303 1.2046,5.48762 1.2046,2.36458 3.34611,3.65841 2.18613,1.24922 4.99686,1.24922 z m 26.8135,0.3123 h 10.26141 v 4.95224 h -16.50748 v -31.14113 h 6.24607 z m 20.47815,0 h 10.26141 v 4.95224 h -16.50748 v -31.14113 h 6.24607 z m 20.47818,-21.14742 v 7.80759 h 10.48448 v 4.95225 h -10.48448 v 8.25374 h 11.82293 v 5.08608 h -18.069 v -31.18574 h 18.069 v 5.08608 z m 38.68104,-5.04147 v 5.04147 h -8.29835 v 26.09966 h -6.24608 v -26.09966 h -8.29835 v -5.04147 z"
       id="RENAUD COLLET "
       aria-label="RENAUD COLLET" />
    <path
       id="Forme 1"
       fill-rule="evenodd"
       class="s0"
       d="M 55.736462,224.4 H 410 v 4.2 H 55.736462 Z"
       style="display:none;fill:#ffffff;stroke-width:0.992001" />
    <path
       style="-inkscape-font-specification:'Poppins Medium';fill:#ffffff;stroke-width:0.58726"
       d="m 93.048918,237.19232 v 5.53324 H 75.497244 v 12.19693 H 89.1816 v 5.53324 H 75.497244 v 18.08715 h -6.78268 v -41.35056 z m 27.785152,41.35056 -9.51955,-16.54022 h -5.17625 v 16.54022 h -6.782685 v -41.35056 h 14.279325 q 4.75978,0 8.03213,1.66592 3.33184,1.66593 4.93826,4.46229 1.66592,2.79637 1.66592,6.24721 0,4.04581 -2.37988,7.37765 -2.32039,3.27235 -7.19916,4.46229 l 10.23351,17.1352 z m -14.6958,-21.95447 h 7.49664 q 3.80782,0 5.71173,-1.90391 1.96341,-1.90391 1.96341,-5.11676 0,-3.21285 -1.90391,-4.99776 -1.90391,-1.84442 -5.77123,-1.84442 h -7.49664 z m 37.60223,-13.92234 v 12.13742 h 14.27933 v 5.53324 H 143.7405 v 12.67291 h 16.06424 v 5.53324 h -22.84692 v -41.41005 h 22.84692 v 5.53324 z m 31.17654,0 v 12.13742 h 14.27932 v 5.53324 h -14.27932 v 12.67291 h 16.06424 v 5.53324 h -22.84692 v -41.41005 h 22.84692 v 5.53324 z m 31.17655,30.40306 h 13.98184 v 5.47375 h -20.76452 v -41.35056 h 6.78268 z m 44.56341,-2.97486 h -17.31369 l -2.97486,8.44861 h -7.08016 l 14.8148,-41.41005 h 7.85363 l 14.8148,41.41005 h -7.13966 z m -1.90391,-5.53323 -6.72319,-19.2176 -6.78268,19.2176 z m 52.41706,13.98184 h -6.78268 l -20.40754,-30.87905 v 30.87905 h -6.78269 v -41.41005 h 6.78269 l 20.40754,30.81955 v -30.81955 h 6.78268 z m 6.66372,-20.76453 q 0,-6.06871 2.79637,-10.88798 2.85587,-4.81928 7.67514,-7.49665 4.87877,-2.73687 10.65,-2.73687 6.60419,0 11.72095,3.27234 5.17625,3.21285 7.49664,9.16257 h -8.15111 q -1.60643,-3.27234 -4.46229,-4.87877 -2.85587,-1.60642 -6.60419,-1.60642 -4.10531,0 -7.31816,1.84441 -3.21285,1.84441 -5.05726,5.29525 -1.78491,3.45084 -1.78491,8.03212 0,4.58129 1.78491,8.03213 1.84441,3.45083 5.05726,5.35474 3.21285,1.84442 7.31816,1.84442 3.74832,0 6.60419,-1.60643 2.85586,-1.60642 4.46229,-4.87877 h 8.15111 q -2.32039,5.94972 -7.49664,9.16257 -5.11676,3.21285 -11.72095,3.21285 -5.83073,0 -10.65,-2.67737 -4.81927,-2.73687 -7.67514,-7.55615 -2.79637,-4.81927 -2.79637,-10.88799 z m 55.03496,-15.11228 v 12.13742 h 14.27932 v 5.53324 h -14.27932 v 12.67291 h 16.06424 v 5.53324 h -22.84692 v -41.41005 h 22.84692 v 5.53324 z"
       id="FREELANCE "
       aria-label="FREELANCE" />
  </g>
  <metadata
     id="metadata22">
    <rdf:RDF>
      <cc:Work
         rdf:about="">
        <dc:title>logo-renaudcollet-2024</dc:title>
      </cc:Work>
    </rdf:RDF>
  </metadata>
</svg>
