<?xml version="1.0" encoding="UTF-8" standalone="no"?>
<svg xmlns="http://www.w3.org/2000/svg" width="13" height="14" viewBox="0 0 13 14">
    <path fill="#FFF" fill-rule="evenodd" d="M.03 14H2.8V3.733H.03V14zM8.487 3.733c-.137 0-.268.01-.394.03-.127.019-.248.048-.365.087a8.586 8.586 0 0 0-.291.102c-.078.03-.176.078-.292.146a5.95 5.95 0 0 0-.219.131c-.03.02-.102.078-.219.175l-.175.146v-.817h-2.77V14h2.77V7.525v-.117c0-.058.025-.165.073-.32.049-.156.117-.287.204-.394.088-.107.234-.21.438-.306.204-.098.442-.146.714-.146.467 0 .812.116 1.036.35.224.233.335.544.335.933V14h2.946V7.642c0-.68-.107-1.27-.32-1.765-.215-.496-.462-.875-.744-1.137a3.483 3.483 0 0 0-.992-.642c-.38-.165-.7-.267-.963-.306a5.27 5.27 0 0 0-.772-.059zM.408.408A1.35 1.35 0 0 0 0 1.4c0 .389.136.72.408.992.273.272.603.408.992.408s.72-.136.992-.408A1.35 1.35 0 0 0 2.8 1.4c0-.389-.136-.72-.408-.992A1.35 1.35 0 0 0 1.4 0C1.011 0 .68.136.408.408z"/>
</svg>
