<?xml version="1.0" encoding="UTF-8" standalone="no"?>
<svg xmlns="http://www.w3.org/2000/svg" width="14" height="14" viewBox="0 0 14 14">
    <path fill="#FFF" fill-rule="evenodd" d="M4.438 4.469A3.492 3.492 0 0 1 7 3.406c1 0 1.849.35 2.547 1.047C10.245 5.151 10.594 6 10.594 7c0 1-.35 1.849-1.047 2.547C8.849 10.245 8 10.594 7 10.594c-1 0-1.849-.35-2.547-1.047C3.755 8.849 3.406 8 3.406 7c0-1 .344-1.844 1.032-2.531zm.906 4.187c.458.459 1.01.688 1.656.688.646 0 1.198-.23 1.656-.688.459-.458.688-1.01.688-1.656 0-.646-.23-1.198-.688-1.656A2.258 2.258 0 0 0 7 4.656c-.646 0-1.198.23-1.656.688A2.258 2.258 0 0 0 4.656 7c0 .646.23 1.198.688 1.656zm5.969-5.968c.166.145.25.333.25.562 0 .23-.079.427-.235.594a.761.761 0 0 1-.578.25.811.811 0 0 1-.594-.25.811.811 0 0 1-.25-.594c0-.23.084-.422.25-.578a.839.839 0 0 1 .594-.234c.23 0 .417.083.563.25zm2.656 1.437c.02.563.031 1.52.031 2.875 0 1.354-.01 2.312-.031 2.875-.063 1.27-.443 2.255-1.14 2.953-.699.698-1.683 1.068-2.954 1.11C9.312 13.978 8.355 14 7 14c-1.354 0-2.312-.02-2.875-.063-1.27-.062-2.25-.437-2.937-1.125-.271-.25-.49-.541-.657-.875a4.421 4.421 0 0 1-.36-.968 4.852 4.852 0 0 1-.109-1.094C.021 9.312 0 8.355 0 7c0-1.354.02-2.323.062-2.906.063-1.25.438-2.219 1.126-2.906C1.875.479 2.854.094 4.125.03 4.688.011 5.645 0 7 0c1.354 0 2.312.01 2.875.031 1.27.063 2.255.443 2.953 1.14.698.699 1.078 1.683 1.14 2.954zm-1.5 7c.062-.167.114-.38.156-.64.042-.261.073-.574.094-.938.02-.365.031-.662.031-.89v-.97-.703-.687-.953c0-.23-.01-.526-.031-.89a9.457 9.457 0 0 0-.094-.938 3.389 3.389 0 0 0-.156-.641 2.255 2.255 0 0 0-1.344-1.344 3.39 3.39 0 0 0-.64-.156 9.46 9.46 0 0 0-.938-.094c-.365-.02-.656-.031-.875-.031H5.343c-.228 0-.525.01-.89.031a9.46 9.46 0 0 0-.937.094 3.39 3.39 0 0 0-.641.156 2.255 2.255 0 0 0-1.344 1.344 3.39 3.39 0 0 0-.156.64 9.46 9.46 0 0 0-.094.938c-.02.365-.031.656-.031.875v3c0 .198.005.453.016.766.01.312.026.578.047.797a7.994 7.994 0 0 0 .218 1.234c.271.646.719 1.094 1.344 1.344.167.062.38.114.64.156.261.042.574.073.938.094.365.02.656.031.875.031h3.328c.23 0 .526-.01.89-.031a9.46 9.46 0 0 0 .938-.094 3.39 3.39 0 0 0 .641-.156c.646-.271 1.094-.719 1.344-1.344z"/>
</svg>
