<?xml version="1.0" encoding="UTF-8"?>
<svg id="Calque_1" data-name="Calque 1" xmlns="http://www.w3.org/2000/svg" viewBox="0 0 24 17">
  <defs>
    <style>
      .cls-1 {
        fill: #fff;
        fill-rule: evenodd;
      }

      .cls-2 {
        fill: #141415;
      }
    </style>
  </defs>
  <path class="cls-1" d="m12,5c3.4,0,6.5,3.5,6.5,3.5,0,0-3.1,3.5-6.5,3.5s-6.5-3.5-6.5-3.5c0,0,3.2-3.5,6.5-3.5Z"/>
  <path class="cls-2" d="m13.3,8.2c-.6,0-1.1-.5-1.1-1.1h0c0-.3.1-.6.3-.8-.2,0-.4-.1-.6-.1h0c-1.3,0-2.4,1.1-2.4,2.4h0c0,1.3,1.1,2.4,2.4,2.4s2.4-1.1,2.4-2.4c0-.3,0-.6-.2-.9-.1.3-.4.5-.8.5Z"/>
</svg>