<?xml version="1.0" encoding="UTF-8"?>
<svg id="Calque_1" data-name="Calque 1" xmlns="http://www.w3.org/2000/svg" viewBox="0 0 24 17">
  <defs>
    <style>
      .cls-1 {
        fill: #555555;
      }
    </style>
  </defs>
  <path class="cls-1" d="m3.34,3.56c-.64,0-1.25.18-1.6.67h-.02V1.39H.16v4.41l3.05,3.07c1.46-.03,2.43-1.1,2.43-2.61,0-1.41-.87-2.7-2.3-2.7h0Zm-.5,3.94c-.78,0-1.25-.52-1.25-1.28s.47-1.28,1.25-1.28,1.25.52,1.25,1.28-.47,1.28-1.25,1.28Z"/>
  <path class="cls-1" d="m7.85,6.64c0-1.01.14-1.7,1.33-1.7.23,0,.45.04.66.1v-1.43c-.15-.04-.34-.05-.52-.05-.69,0-1.12.32-1.45.94h-.02v-.81h-1.56v5.07h1.56v-2.12h0Z"/>
  <path class="cls-1" d="m12.83,8.88c.81,0,1.63-.36,2.13-1l-1.09-.8c-.26.35-.6.62-1.11.62-.6,0-1.05-.39-1.17-.98h3.61v-.49c0-1.62-.91-2.66-2.37-2.66-1.56,0-2.8,1.04-2.8,2.66s1.25,2.66,2.8,2.66h0Zm-.14-4.19c.56,0,.97.44.96.96h-2.06c.04-.49.42-.96,1.1-.96Z"/>
  <polygon class="cls-1" points="18.5 8.75 19.43 5.39 19.45 5.39 20.5 8.75 22.04 8.75 23.83 3.69 22.25 3.69 21.31 6.87 21.29 6.87 20.35 3.69 18.65 3.69 17.79 6.87 17.77 6.87 16.74 3.69 15.08 3.69 16.93 8.75 18.5 8.75"/>
  <path class="cls-1" d="m7.52,11.89c0-.3.31-.42.57-.42.37,0,.67.15.9.43l.96-.95c-.47-.5-1.2-.67-1.87-.67-.95,0-1.91.43-2.09,1.38l1.91,1.92c.39.09.68.19.68.47,0,.06-.02.12-.06.16l.97.97c.39-.26.65-.66.65-1.25,0-1.93-2.63-1.29-2.63-2.04h0Z"/>
  <path class="cls-1" d="m12.78,9.43h-1.56v.98h-1v1.25h1v2.41c0,1.1.8,1.53,1.84,1.53.36,0,.75-.03,1.09-.16v-1.3c-.14.12-.47.15-.63.15-.67,0-.74-.4-.74-.94v-1.69h1.37v-1.25h-1.37v-.98h0Z"/>
  <path class="cls-1" d="m17.25,10.29c-1.56,0-2.8,1.04-2.8,2.66s1.25,2.66,2.8,2.66c.81,0,1.63-.36,2.13-1l-1.09-.8c-.26.35-.6.62-1.11.62-.6,0-1.05-.39-1.17-.98h3.61v-.49c0-1.62-.91-2.66-2.37-2.66h0Zm-1.25,2.08c.04-.49.42-.96,1.1-.96.56,0,.97.44.96.96h-2.06Z"/>
  <path class="cls-1" d="m23.32,10.29c-.69,0-1.12.32-1.45.94h-.02v-.81h-1.56v5.07h1.56v-2.12c0-1.01.14-1.7,1.33-1.7.23,0,.45.04.66.1v-1.43c-.15-.04-.34-.05-.52-.05h0Z"/>
  <rect class="cls-1" x=".16" y="12.91" width="5.48" height=".32"/>
</svg>